<mxfile host="app.diagrams.net" modified="2023-05-29T20:31:12.757Z" agent="Mozilla/5.0 (Windows NT 10.0; Win64; x64) AppleWebKit/537.36 (KHTML, like Gecko) Chrome/113.0.0.0 Safari/537.36" etag="SOqazL8PjeSaUikynPi_" version="21.3.5" type="github">
  <diagram id="C5RBs43oDa-KdzZeNtuy" name="Page-1">
    <mxGraphModel dx="1114" dy="527" grid="1" gridSize="10" guides="1" tooltips="1" connect="1" arrows="1" fold="1" page="1" pageScale="1" pageWidth="827" pageHeight="1169" math="0" shadow="0">
      <root>
        <mxCell id="WIyWlLk6GJQsqaUBKTNV-0" />
        <mxCell id="WIyWlLk6GJQsqaUBKTNV-1" parent="WIyWlLk6GJQsqaUBKTNV-0" />
        <mxCell id="WIyWlLk6GJQsqaUBKTNV-2" value="" style="rounded=0;html=1;jettySize=auto;orthogonalLoop=1;fontSize=11;endArrow=block;endFill=0;endSize=8;strokeWidth=1;shadow=0;labelBackgroundColor=none;edgeStyle=orthogonalEdgeStyle;" parent="WIyWlLk6GJQsqaUBKTNV-1" edge="1">
          <mxGeometry relative="1" as="geometry">
            <mxPoint x="220" y="120" as="sourcePoint" />
            <mxPoint x="220" y="170" as="targetPoint" />
          </mxGeometry>
        </mxCell>
        <mxCell id="WIyWlLk6GJQsqaUBKTNV-10" value="is n +ve?" style="rhombus;whiteSpace=wrap;html=1;shadow=0;fontFamily=Helvetica;fontSize=12;align=center;strokeWidth=1;spacing=6;spacingTop=-4;" parent="WIyWlLk6GJQsqaUBKTNV-1" vertex="1">
          <mxGeometry x="170" y="290" width="100" height="80" as="geometry" />
        </mxCell>
        <mxCell id="WIyWlLk6GJQsqaUBKTNV-11" value="print" style="rounded=1;whiteSpace=wrap;html=1;fontSize=12;glass=0;strokeWidth=1;shadow=0;" parent="WIyWlLk6GJQsqaUBKTNV-1" vertex="1">
          <mxGeometry x="160" y="430" width="120" height="40" as="geometry" />
        </mxCell>
        <mxCell id="GI3MoXhFrL-_9JRekFHC-0" value="start" style="ellipse;whiteSpace=wrap;html=1;" vertex="1" parent="WIyWlLk6GJQsqaUBKTNV-1">
          <mxGeometry x="160" y="70" width="110" height="50" as="geometry" />
        </mxCell>
        <mxCell id="GI3MoXhFrL-_9JRekFHC-1" value="sum=0&lt;br&gt;n=1" style="shape=parallelogram;perimeter=parallelogramPerimeter;whiteSpace=wrap;html=1;fixedSize=1;" vertex="1" parent="WIyWlLk6GJQsqaUBKTNV-1">
          <mxGeometry x="160" y="170" width="120" height="60" as="geometry" />
        </mxCell>
        <mxCell id="GI3MoXhFrL-_9JRekFHC-2" value="r.s=sum+(n+1)" style="rounded=1;whiteSpace=wrap;html=1;" vertex="1" parent="WIyWlLk6GJQsqaUBKTNV-1">
          <mxGeometry x="340" y="310" width="120" height="50" as="geometry" />
        </mxCell>
        <mxCell id="GI3MoXhFrL-_9JRekFHC-3" value="r.s=sum+n" style="rounded=1;whiteSpace=wrap;html=1;" vertex="1" parent="WIyWlLk6GJQsqaUBKTNV-1">
          <mxGeometry x="50" y="310" width="80" height="50" as="geometry" />
        </mxCell>
        <mxCell id="GI3MoXhFrL-_9JRekFHC-4" value="" style="endArrow=classic;html=1;rounded=0;" edge="1" parent="WIyWlLk6GJQsqaUBKTNV-1">
          <mxGeometry width="50" height="50" relative="1" as="geometry">
            <mxPoint x="270" y="330" as="sourcePoint" />
            <mxPoint x="330" y="330" as="targetPoint" />
          </mxGeometry>
        </mxCell>
        <mxCell id="GI3MoXhFrL-_9JRekFHC-5" value="" style="endArrow=classic;html=1;rounded=0;" edge="1" parent="WIyWlLk6GJQsqaUBKTNV-1">
          <mxGeometry width="50" height="50" relative="1" as="geometry">
            <mxPoint x="170" y="330" as="sourcePoint" />
            <mxPoint x="140" y="330" as="targetPoint" />
          </mxGeometry>
        </mxCell>
        <mxCell id="GI3MoXhFrL-_9JRekFHC-6" value="" style="endArrow=classic;html=1;rounded=0;" edge="1" parent="WIyWlLk6GJQsqaUBKTNV-1">
          <mxGeometry width="50" height="50" relative="1" as="geometry">
            <mxPoint x="220" y="230" as="sourcePoint" />
            <mxPoint x="220" y="280" as="targetPoint" />
          </mxGeometry>
        </mxCell>
        <mxCell id="GI3MoXhFrL-_9JRekFHC-7" value="" style="endArrow=none;html=1;rounded=0;" edge="1" parent="WIyWlLk6GJQsqaUBKTNV-1">
          <mxGeometry width="50" height="50" relative="1" as="geometry">
            <mxPoint x="400" y="360" as="sourcePoint" />
            <mxPoint x="400" y="440" as="targetPoint" />
          </mxGeometry>
        </mxCell>
        <mxCell id="GI3MoXhFrL-_9JRekFHC-8" value="" style="endArrow=none;html=1;rounded=0;" edge="1" parent="WIyWlLk6GJQsqaUBKTNV-1">
          <mxGeometry width="50" height="50" relative="1" as="geometry">
            <mxPoint x="90" y="450" as="sourcePoint" />
            <mxPoint x="90" y="360" as="targetPoint" />
          </mxGeometry>
        </mxCell>
        <mxCell id="GI3MoXhFrL-_9JRekFHC-9" value="" style="endArrow=classic;html=1;rounded=0;" edge="1" parent="WIyWlLk6GJQsqaUBKTNV-1">
          <mxGeometry width="50" height="50" relative="1" as="geometry">
            <mxPoint x="90" y="450" as="sourcePoint" />
            <mxPoint x="150" y="450" as="targetPoint" />
          </mxGeometry>
        </mxCell>
        <mxCell id="GI3MoXhFrL-_9JRekFHC-10" value="" style="endArrow=classic;html=1;rounded=0;" edge="1" parent="WIyWlLk6GJQsqaUBKTNV-1">
          <mxGeometry width="50" height="50" relative="1" as="geometry">
            <mxPoint x="400" y="440" as="sourcePoint" />
            <mxPoint x="290" y="440" as="targetPoint" />
          </mxGeometry>
        </mxCell>
        <mxCell id="GI3MoXhFrL-_9JRekFHC-11" value="&lt;b&gt;yes&lt;/b&gt;" style="text;html=1;align=center;verticalAlign=middle;resizable=0;points=[];autosize=1;strokeColor=none;fillColor=none;" vertex="1" parent="WIyWlLk6GJQsqaUBKTNV-1">
          <mxGeometry x="270" y="298" width="40" height="30" as="geometry" />
        </mxCell>
        <mxCell id="GI3MoXhFrL-_9JRekFHC-12" value="&lt;b&gt;No&lt;/b&gt;" style="text;html=1;align=center;verticalAlign=middle;resizable=0;points=[];autosize=1;strokeColor=none;fillColor=none;" vertex="1" parent="WIyWlLk6GJQsqaUBKTNV-1">
          <mxGeometry x="140" y="298" width="40" height="30" as="geometry" />
        </mxCell>
        <mxCell id="GI3MoXhFrL-_9JRekFHC-13" value="" style="endArrow=classic;html=1;rounded=0;" edge="1" parent="WIyWlLk6GJQsqaUBKTNV-1">
          <mxGeometry width="50" height="50" relative="1" as="geometry">
            <mxPoint x="220" y="470" as="sourcePoint" />
            <mxPoint x="220" y="510" as="targetPoint" />
          </mxGeometry>
        </mxCell>
        <mxCell id="GI3MoXhFrL-_9JRekFHC-14" value="End" style="ellipse;whiteSpace=wrap;html=1;" vertex="1" parent="WIyWlLk6GJQsqaUBKTNV-1">
          <mxGeometry x="170" y="510" width="100" height="60" as="geometry" />
        </mxCell>
      </root>
    </mxGraphModel>
  </diagram>
</mxfile>
